<svg width="145" height="146" viewBox="0 0 145 146" fill="none" xmlns="http://www.w3.org/2000/svg">
<g id="Group 507">
<g id="Group">
<path id="Vector" opacity="0.95" fill-rule="evenodd" clip-rule="evenodd" d="M23.0949 0.0182703C53.7907 -0.0304508 84.4863 0.0182704 115.182 0.16444C120.263 1.05607 123.333 4.02819 124.39 9.08077C124.585 17.9484 124.585 26.816 124.39 35.6836C123.303 36.5945 122.426 37.6662 121.759 38.8993C118.926 45.1118 115.954 51.2509 112.843 57.3167C112.599 44.7473 112.453 32.1767 112.404 19.605C110.764 13.1897 106.72 9.24308 100.272 7.76525C71.6234 7.61908 42.9742 7.57034 14.3247 7.61908C15.7129 3.30705 18.6363 0.773454 23.0949 0.0182703Z" fill="#15245B"/>
</g>
<g id="Group_2">
<path id="Vector_2" opacity="0.975" fill-rule="evenodd" clip-rule="evenodd" d="M9.35484 11.7119C39.271 11.6631 69.1869 11.7119 99.1028 11.858C104.187 12.7523 107.257 15.7245 108.311 20.7744C108.506 36.171 108.506 51.5673 108.311 66.9639C101.922 80.0835 95.7342 93.2872 89.748 106.576C90.2175 113.55 90.7533 120.517 91.3558 127.478C92.8968 130.707 95.3816 131.73 98.8105 130.548C101.969 128.412 105.088 126.219 108.165 123.97C108.581 128.658 108.532 133.335 108.019 138.002C106.588 142.162 103.713 144.647 99.3952 145.457C69.3816 145.652 39.3684 145.652 9.35484 145.457C3.87179 144.456 0.802237 141.192 0.14617 135.663C-0.0487234 97.7568 -0.0487234 59.8504 0.14617 21.9437C0.72004 16.2553 3.78959 12.8447 9.35484 11.7119ZM10.5242 18.1433C39.7584 18.0946 68.9922 18.1433 98.2258 18.2895C100.321 18.8254 101.637 20.141 102.172 22.2361C102.367 26.9135 102.367 31.5909 102.172 36.2683C101.57 38.6243 100.06 39.9398 97.6411 40.2149C68.6996 40.4099 39.7581 40.4099 10.8165 40.2149C8.80124 39.8565 7.38828 38.7357 6.57762 36.853C6.25444 34.3366 6.10827 31.8029 6.13911 29.2522C6.10827 26.7016 6.25444 24.168 6.57762 21.6514C7.41538 19.8848 8.7309 18.7154 10.5242 18.1433ZM10.2319 48.5466C20.6591 48.4977 31.0858 48.5466 41.5121 48.6927C43.738 49.3832 45.0535 50.8937 45.4587 53.224C45.6537 63.4558 45.6537 73.6877 45.4587 83.9195C45.0883 86.4342 43.6754 88.0421 41.2198 88.7431C30.9879 88.9381 20.756 88.9381 10.5242 88.7431C8.20177 88.0775 6.78881 86.567 6.28528 84.2119C6.09038 73.8827 6.09038 63.5532 6.28528 53.224C6.61627 50.8005 7.93179 49.2412 10.2319 48.5466ZM58.1754 48.5466C72.4029 48.4977 86.6299 48.5466 100.857 48.6927C102.645 49.8367 102.743 51.1034 101.149 52.4931C86.7272 52.6881 72.305 52.6881 57.8831 52.4931C56.4617 51.1253 56.5591 49.8098 58.1754 48.5466ZM58.4677 65.7945C71.6233 65.7457 84.7785 65.7945 97.9335 65.9407C99.432 66.6871 99.7732 67.8076 98.9566 69.3026C98.5418 69.5833 98.1033 69.8268 97.6411 70.0335C84.6809 70.2284 71.7203 70.2284 58.7601 70.0335C56.1881 68.7808 56.0907 67.3679 58.4677 65.7945ZM58.4677 83.0425C69.7719 82.9937 81.0758 83.0425 92.379 83.1887C94.7107 84.5378 94.7107 85.9022 92.379 87.2814C81.0752 87.4764 69.7716 87.4764 58.4677 87.2814C56.198 85.8884 56.198 84.4753 58.4677 83.0425ZM7.89315 100.291C33.2293 100.242 58.5654 100.291 83.9012 100.437C85.3997 101.183 85.7409 102.304 84.9244 103.799C84.5821 104.206 84.1436 104.45 83.6089 104.529C58.3704 104.724 33.1316 104.724 7.89315 104.529C5.58525 103.12 5.58525 101.707 7.89315 100.291ZM7.89315 117.538C31.0855 117.49 54.2776 117.538 77.4698 117.685C79.0949 118.111 79.6307 119.134 79.0776 120.754C78.7227 121.207 78.2842 121.548 77.7621 121.777C54.4723 121.972 31.1829 121.972 7.89315 121.777C5.58525 120.368 5.58525 118.955 7.89315 117.538ZM7.89315 134.786C25.7261 134.738 43.5588 134.786 61.3911 134.933C63.0162 135.359 63.5521 136.382 62.999 138.002C62.6441 138.455 62.2056 138.796 61.6835 139.025C43.7535 139.22 25.8232 139.22 7.89315 139.025C5.57817 137.631 5.57817 136.218 7.89315 134.786Z" fill="#15245B"/>
</g>
<g id="Group_3">
<path id="Vector_3" opacity="0.983" fill-rule="evenodd" clip-rule="evenodd" d="M10.8171 22.5284C39.8568 22.4309 68.8957 22.5284 97.934 22.8207C98.2699 26.9977 98.3187 31.188 98.0802 35.3913C83.5734 35.7804 69.0053 35.9754 54.3755 35.9759C39.8559 35.9271 25.3366 35.8786 10.8171 35.8298C10.4295 31.3959 10.4295 26.9622 10.8171 22.5284Z" fill="#15245B"/>
</g>
<g id="Group_4">
<path id="Vector_4" opacity="0.957" fill-rule="evenodd" clip-rule="evenodd" d="M132.137 35.6835C139.662 35.0576 143.95 38.4683 145 45.9154C144.789 48.6452 143.864 51.0813 142.223 53.2238C136.052 50.3577 129.962 47.3855 123.952 44.3075C125.257 40.0317 127.985 37.1569 132.137 35.6835Z" fill="#15245B"/>
</g>
<g id="Group_5">
<path id="Vector_5" opacity="0.95" fill-rule="evenodd" clip-rule="evenodd" d="M121.905 48.2542C124.536 49.2759 126.972 50.5914 129.214 52.2007C120.266 71.1191 111.204 89.975 102.026 108.768C99.5811 107.546 97.1448 106.328 94.7178 105.114C103.902 86.2108 112.964 67.2576 121.905 48.2542Z" fill="#15245B"/>
</g>
<g id="Group_6">
<path id="Vector_6" opacity="0.982" fill-rule="evenodd" clip-rule="evenodd" d="M11.1091 52.6392C20.8542 52.5903 30.5987 52.6392 40.343 52.7853C40.6107 52.8947 40.8546 53.0408 41.0738 53.2238C41.3162 63.6226 41.2676 74.0006 40.9276 84.3579C30.8212 84.6003 20.7354 84.5514 10.6706 84.2117C10.6219 78.9985 10.5731 73.7849 10.5244 68.5716C10.5282 63.197 10.7231 57.8863 11.1091 52.6392Z" fill="#15245B"/>
</g>
<g id="Group_7">
<path id="Vector_7" opacity="0.951" fill-rule="evenodd" clip-rule="evenodd" d="M133.014 53.8086C135.671 54.695 138.205 55.8643 140.615 57.3167C132.478 74.3697 124.341 91.4229 116.205 108.476C115.325 110.432 114.302 112.283 113.135 114.03C110.733 112.879 108.394 111.66 106.119 110.376C115.128 91.5302 124.093 72.6744 133.014 53.8086Z" fill="#15245B"/>
</g>
<g id="Group_8">
<path id="Vector_8" opacity="0.959" fill-rule="evenodd" clip-rule="evenodd" d="M124.244 101.167C124.439 105.649 124.536 110.18 124.536 114.761C124.577 119.697 124.43 124.618 124.098 129.524C122.082 134.798 118.233 137.234 112.55 136.833C112.722 131.378 112.917 125.921 113.135 120.462C114.2 119.738 115.223 118.959 116.205 118.123C118.968 112.499 121.648 106.847 124.244 101.167Z" fill="#15245B"/>
</g>
<g id="Group_9">
<path id="Vector_9" opacity="0.936" fill-rule="evenodd" clip-rule="evenodd" d="M94.4253 109.645C99.7245 112.149 104.987 114.731 110.212 117.392C105.775 120.439 101.39 123.557 97.0563 126.747C96.4129 126.988 95.877 126.842 95.4485 126.309C94.9255 120.765 94.5843 115.21 94.4253 109.645Z" fill="#15245B"/>
</g>
</g>
</svg>
