<svg width="38" height="38" viewBox="0 0 38 38" fill="none" xmlns="http://www.w3.org/2000/svg">
<g id="material-symbols-light:person-outline">
<path id="Vector" d="M18.9998 18.0264C17.6941 18.0264 16.5758 17.5609 15.6448 16.6299C14.7138 15.6989 14.2488 14.581 14.2498 13.2764C14.2498 11.9696 14.7148 10.8507 15.6448 9.9197C16.5747 8.99081 17.6931 8.52637 18.9998 8.52637C20.3066 8.52637 21.425 8.99081 22.3549 9.9197C23.2849 10.8507 23.7498 11.9696 23.7498 13.2764C23.7498 14.5821 23.2849 15.6999 22.3549 16.6299C21.425 17.5598 20.3066 18.0253 18.9998 18.0264ZM7.9165 29.4739V26.8693C7.9165 26.2159 8.1065 25.6047 8.4865 25.0358C8.86756 24.4658 9.3795 24.0235 10.0223 23.7089C11.517 22.9922 13.0122 22.455 14.5079 22.0971C16.0047 21.7382 17.502 21.5588 18.9998 21.5588C20.4987 21.5588 21.996 21.7382 23.4918 22.0971C24.9875 22.456 26.4821 22.9933 27.9758 23.7089C28.6196 24.0235 29.1316 24.4658 29.5116 25.0358C29.8926 25.6047 30.0832 26.2159 30.0832 26.8693V29.4754L7.9165 29.4739ZM9.49984 27.8905H28.4998V26.8677C28.4998 26.5173 28.3869 26.1874 28.161 25.8781C27.9341 25.5699 27.6206 25.3092 27.2205 25.0959C25.9179 24.4647 24.5742 23.9813 23.1893 23.6456C21.8066 23.3089 20.4101 23.1405 18.9998 23.1405C17.5907 23.1405 16.1942 23.3089 14.8103 23.6456C13.4254 23.9813 12.0817 24.4647 10.7792 25.0959C10.3781 25.3092 10.0646 25.5699 9.83867 25.8781C9.61278 26.1874 9.49984 26.5178 9.49984 26.8693V27.8905ZM18.9998 16.443C19.8707 16.443 20.6164 16.1327 21.2371 15.512C21.8578 14.8914 22.1676 14.1461 22.1665 13.2764C22.1665 12.4055 21.8567 11.6598 21.2371 11.0391C20.6175 10.4185 19.8717 10.1086 18.9998 10.1097C18.129 10.1097 17.3838 10.4195 16.7642 11.0391C16.1446 11.6587 15.8342 12.4045 15.8332 13.2764C15.8332 14.1472 16.1435 14.8924 16.7642 15.512C17.3848 16.1316 18.1301 16.442 18.9998 16.443Z" fill="#15245B"/>
</g>
</svg>
