<svg width="38" height="38" viewBox="0 0 38 38" fill="none" xmlns="http://www.w3.org/2000/svg">
<g id="lets-icons:date-range">
<g id="Group">
<path id="Vector" d="M30.0833 9.5H7.91667C6.16776 9.5 4.75 10.9178 4.75 12.6667V30.0833C4.75 31.8322 6.16776 33.25 7.91667 33.25H30.0833C31.8322 33.25 33.25 31.8322 33.25 30.0833V12.6667C33.25 10.9178 31.8322 9.5 30.0833 9.5Z" stroke="#15245B" stroke-width="2"/>
<path id="Vector_2" d="M4.75 15.8333C4.75 12.8472 4.75 11.3557 5.67783 10.4278C6.60567 9.5 8.09717 9.5 11.0833 9.5H26.9167C29.9028 9.5 31.3943 9.5 32.3222 10.4278C33.25 11.3557 33.25 12.8472 33.25 15.8333H4.75Z" fill="#15245B"/>
<path id="Vector_3" d="M11.0835 4.75V9.5M26.9168 4.75V9.5" stroke="#15245B" stroke-width="2" stroke-linecap="round"/>
<path id="Vector_4" d="M16.6252 19H11.8752C11.4379 19 11.0835 19.3544 11.0835 19.7917V21.375C11.0835 21.8122 11.4379 22.1667 11.8752 22.1667H16.6252C17.0624 22.1667 17.4168 21.8122 17.4168 21.375V19.7917C17.4168 19.3544 17.0624 19 16.6252 19Z" fill="#15245B"/>
<path id="Vector_5" d="M16.6252 25.3333H11.8752C11.4379 25.3333 11.0835 25.6877 11.0835 26.1249V27.7083C11.0835 28.1455 11.4379 28.4999 11.8752 28.4999H16.6252C17.0624 28.4999 17.4168 28.1455 17.4168 27.7083V26.1249C17.4168 25.6877 17.0624 25.3333 16.6252 25.3333Z" fill="#15245B"/>
<path id="Vector_6" d="M26.1252 19H21.3752C20.9379 19 20.5835 19.3544 20.5835 19.7917V21.375C20.5835 21.8122 20.9379 22.1667 21.3752 22.1667H26.1252C26.5624 22.1667 26.9168 21.8122 26.9168 21.375V19.7917C26.9168 19.3544 26.5624 19 26.1252 19Z" fill="#15245B"/>
<path id="Vector_7" d="M26.1252 25.3333H21.3752C20.9379 25.3333 20.5835 25.6877 20.5835 26.1249V27.7083C20.5835 28.1455 20.9379 28.4999 21.3752 28.4999H26.1252C26.5624 28.4999 26.9168 28.1455 26.9168 27.7083V26.1249C26.9168 25.6877 26.5624 25.3333 26.1252 25.3333Z" fill="#15245B"/>
</g>
</g>
</svg>
