<svg width="28" height="29" viewBox="0 0 28 29" fill="none" xmlns="http://www.w3.org/2000/svg">
<path id="Vector" fill-rule="evenodd" clip-rule="evenodd" d="M4.4211 0C3.24855 0 2.12403 0.458302 1.29491 1.27409C0.465794 2.08987 0 3.19631 0 4.35V24.65C0 25.8037 0.465794 26.9101 1.29491 27.7259C2.12403 28.5417 3.24855 29 4.4211 29H13.2633C14.4359 29 15.5604 28.5417 16.3895 27.7259C17.2186 26.9101 17.6844 25.8037 17.6844 24.65V4.35C17.6844 3.19631 17.2186 2.08987 16.3895 1.27409C15.5604 0.458302 14.4359 0 13.2633 0H4.4211ZM19.5899 7.67485C19.8663 7.40302 20.241 7.25031 20.6318 7.25031C21.0226 7.25031 21.3974 7.40302 21.6737 7.67485L27.5685 13.4749C27.8448 13.7468 28 14.1155 28 14.5C28 14.8845 27.8448 15.2532 27.5685 15.5252L21.6737 21.3252C21.3958 21.5893 21.0235 21.7354 20.6371 21.7321C20.2507 21.7288 19.8811 21.5763 19.6079 21.3075C19.3346 21.0386 19.1796 20.675 19.1763 20.2948C19.1729 19.9146 19.3215 19.5483 19.5899 19.2749L22.9691 15.95H10.3159C9.92506 15.95 9.55021 15.7972 9.27384 15.5253C8.99747 15.2534 8.84221 14.8846 8.84221 14.5C8.84221 14.1154 8.99747 13.7466 9.27384 13.4747C9.55021 13.2028 9.92506 13.05 10.3159 13.05H22.9691L19.5899 9.72515C19.3136 9.45323 19.1584 9.08449 19.1584 8.7C19.1584 8.31551 19.3136 7.94677 19.5899 7.67485Z" fill="#FAFAFA"/>
</svg>
