<svg width="21" height="12" viewBox="0 0 21 12" fill="none" xmlns="http://www.w3.org/2000/svg">
<g id="arrow 1" clip-path="url(#clip0_191_10325)">
<path id="Vector" fill-rule="evenodd" clip-rule="evenodd" d="M0.690994 1.06165C0.309199 1.47439 0.322339 2.12926 0.720365 2.52535L9.15449 10.9208C9.34047 11.1088 9.56273 11.257 9.80777 11.3564C10.0528 11.4558 10.3155 11.5043 10.5799 11.499C10.8443 11.4937 11.1048 11.4347 11.3457 11.3256C11.5865 11.2164 11.8026 11.0594 11.9809 10.8641L20.1312 2.07384C20.3133 1.8744 20.4127 1.61313 20.4091 1.34309C20.4055 1.07306 20.2993 0.814498 20.112 0.619929C20.0195 0.523537 19.9083 0.447159 19.785 0.395524C19.6618 0.34389 19.5293 0.318099 19.3958 0.319748C19.2622 0.321397 19.1304 0.350451 19.0085 0.405111C18.8866 0.459771 18.7772 0.538874 18.6871 0.63752L11.23 8.68274C11.1409 8.78047 11.0328 8.85904 10.9123 8.91366C10.7918 8.96828 10.6615 8.99782 10.5292 9.00047C10.397 9.00312 10.2656 8.97884 10.143 8.92909C10.0205 8.87935 9.90929 8.80518 9.8163 8.71111L2.10371 1.0333C2.01081 0.939254 1.89973 0.865106 1.77724 0.815371C1.65476 0.765635 1.52343 0.741354 1.39126 0.744007C1.25909 0.746659 1.12885 0.776189 1.00846 0.830797C0.888065 0.885406 0.780052 0.96395 0.690994 1.06165Z" fill="#15245B"/>
</g>
<defs>
<clipPath id="clip0_191_10325">
<rect width="11" height="20" fill="white" transform="translate(20.3877 0.300293) rotate(88.8504)"/>
</clipPath>
</defs>
</svg>
