<svg width="20" height="20" viewBox="0 0 20 20" fill="none" xmlns="http://www.w3.org/2000/svg">
<path id="Vector" d="M19.2679 0.732087C18.7991 0.263335 18.1633 0 17.5003 0C16.8373 0 16.2015 0.263335 15.7327 0.732087L14.6308 1.83399L18.166 5.36924L19.2679 4.26733C19.7367 3.7985 20 3.16268 20 2.49971C20 1.83674 19.7367 1.20092 19.2679 0.732087ZM17.1555 6.37972L13.6203 2.84447L2.04882 14.4159C1.46106 15.0034 1.02899 15.7281 0.791673 16.5245L0.0297664 19.0817C-0.00701837 19.2051 -0.00976187 19.3361 0.0218262 19.4609C0.0534143 19.5858 0.118159 19.6997 0.20921 19.7908C0.300261 19.8818 0.414231 19.9466 0.539062 19.9782C0.663893 20.0098 0.794941 20.007 0.91834 19.9702L3.47549 19.2083C4.2719 18.971 4.9966 18.5389 5.58407 17.9512L17.1555 6.37972Z" fill="#FAFAFA"/>
</svg>
