<svg width="66" height="66" viewBox="0 0 66 66" fill="none" xmlns="http://www.w3.org/2000/svg">
<g id="Group 473">
<path id="Rectangle 198" d="M0 20C0 8.95431 8.95431 0 20 0H46C57.0457 0 66 8.95431 66 20V46C66 57.0457 57.0457 66 46 66H20C8.95431 66 0 57.0457 0 46V20Z" fill="#15245B" fill-opacity="0.9"/>
<g id="Group 472">
<g id="Vector">
<path d="M49.5 51.3641L41.5379 42.3551L49.5 51.3641ZM41.5379 42.3551C42.8999 40.8141 43.9802 38.9846 44.7173 36.9712C45.4544 34.9577 45.8338 32.7997 45.8338 30.6204C45.8338 28.441 45.4544 26.283 44.7173 24.2695C43.9802 22.2561 42.8999 20.4266 41.5379 18.8856C40.176 17.3446 38.5591 16.1222 36.7796 15.2882C35.0002 14.4542 33.093 14.0249 31.1669 14.0249C29.2408 14.0249 27.3336 14.4542 25.5541 15.2882C23.7746 16.1222 22.1578 17.3446 20.7958 18.8856C18.0453 21.9978 16.5 26.219 16.5 30.6204C16.5 35.0217 18.0453 39.2429 20.7958 42.3551C23.5464 45.4674 27.277 47.2158 31.1669 47.2158C35.0568 47.2158 38.7874 45.4674 41.5379 42.3551Z" fill="#15245B" fill-opacity="0.9"/>
<path d="M49.5 51.3641L41.5379 42.3551M41.5379 42.3551C42.8999 40.8141 43.9802 38.9846 44.7173 36.9712C45.4544 34.9577 45.8338 32.7997 45.8338 30.6204C45.8338 28.441 45.4544 26.283 44.7173 24.2695C43.9802 22.2561 42.8999 20.4266 41.5379 18.8856C40.176 17.3446 38.5591 16.1222 36.7796 15.2882C35.0002 14.4542 33.093 14.0249 31.1669 14.0249C29.2408 14.0249 27.3336 14.4542 25.5541 15.2882C23.7746 16.1222 22.1578 17.3446 20.7958 18.8856C18.0453 21.9978 16.5 26.219 16.5 30.6204C16.5 35.0217 18.0453 39.2429 20.7958 42.3551C23.5464 45.4674 27.277 47.2158 31.1669 47.2158C35.0568 47.2158 38.7874 45.4674 41.5379 42.3551Z" stroke="#FAFAFA" stroke-width="3" stroke-linecap="round" stroke-linejoin="round"/>
</g>
</g>
</g>
</svg>
