<svg width="28" height="40" viewBox="0 0 28 40" fill="none" xmlns="http://www.w3.org/2000/svg">
<path id="Vector" d="M22 0H6.00001C4.40871 0 2.88259 0.632016 1.75737 1.75701C0.632156 2.882 1.57658e-05 4.40782 1.57658e-05 5.99881V37.9924C-0.00138337 38.3448 0.090365 38.6913 0.265971 38.9968C0.441578 39.3023 0.694806 39.5559 1.00001 39.7321C1.30405 39.9076 1.64894 40 2.00001 40C2.35109 40 2.69597 39.9076 3.00001 39.7321L14 33.3734L25 39.7321C25.3048 39.9048 25.6496 39.9945 26 39.9921C26.3503 39.9945 26.6952 39.9048 27 39.7321C27.3052 39.5559 27.5584 39.3023 27.734 38.9968C27.9096 38.6913 28.0014 38.3448 28 37.9924V5.99881C28 4.40782 27.3678 2.882 26.2426 1.75701C25.1174 0.632016 23.5913 0 22 0ZM24 34.5331L15 29.3342C14.696 29.1587 14.3511 29.0663 14 29.0663C13.6489 29.0663 13.304 29.1587 13 29.3342L4.00001 34.5331V5.99881C4.00001 5.46848 4.21072 4.95987 4.5858 4.58488C4.96087 4.20988 5.46958 3.99921 6.00001 3.99921H22C22.5304 3.99921 23.0391 4.20988 23.4142 4.58488C23.7893 4.95987 24 5.46848 24 5.99881V34.5331Z" fill="#15245B"/>
</svg>
