<svg width="24" height="28" viewBox="0 0 24 28" fill="none" xmlns="http://www.w3.org/2000/svg">
<path id="Vector" fill-rule="evenodd" clip-rule="evenodd" d="M14.2472 0.2128C13.7798 -6.25849e-08 13.1861 0 12.0001 0C10.814 0 10.2216 -6.25849e-08 9.75297 0.2128C9.13083 0.495895 8.63559 1.04127 8.37617 1.729C8.25743 2.0412 8.21196 2.4066 8.19302 2.9372C8.18459 3.32164 8.08784 3.69736 7.9119 4.02881C7.73597 4.36026 7.48667 4.6365 7.18757 4.8314C6.88283 5.01914 6.54028 5.1186 6.19163 5.12056C5.84299 5.12252 5.49953 5.02691 5.1931 4.8426C4.76616 4.5934 4.4567 4.4562 4.15102 4.4114C3.48227 4.31408 2.80589 4.51332 2.26897 4.9658C1.86729 5.3046 1.57046 5.8702 0.978056 7C0.384388 8.1298 0.0888172 8.694 0.0218716 9.247C-0.066547 9.9834 0.115343 10.7282 0.527121 11.3176C0.714063 11.5864 0.978056 11.8118 1.38604 12.0946C1.98855 12.5104 2.37507 13.2188 2.37507 14C2.37507 14.7812 1.98855 15.4896 1.38731 15.904C0.978056 16.1882 0.714063 16.4136 0.525858 16.6824C0.3226 16.9735 0.173408 17.3064 0.0869027 17.6618C0.000397747 18.0172 -0.0217051 18.3881 0.0218716 18.753C0.0888172 19.3046 0.384388 19.8702 0.978056 21C1.57172 22.1298 1.86729 22.694 2.26897 23.0342C2.80453 23.4864 3.48157 23.6852 4.15102 23.5886C4.4567 23.5438 4.76616 23.4066 5.1931 23.1574C5.49969 22.9728 5.84337 22.8771 6.19226 22.8791C6.54115 22.881 6.88394 22.9806 7.18883 23.1686C7.80271 23.5606 8.16649 24.2816 8.19302 25.0628C8.21196 25.5948 8.25743 25.9588 8.37617 26.271C8.63385 26.957 9.12899 27.503 9.75297 27.7872C10.2203 28 10.814 28 12.0001 28C13.1861 28 13.7798 28 14.2472 27.7872C14.8693 27.5041 15.3646 26.9587 15.624 26.271C15.7427 25.9588 15.7882 25.5948 15.8071 25.0628C15.8324 24.2816 16.1974 23.5592 16.8126 23.1686C17.1173 22.9809 17.4599 22.8814 17.8085 22.8794C18.1572 22.8775 18.5006 22.9731 18.807 23.1574C19.234 23.4066 19.5434 23.5438 19.8491 23.5886C20.5186 23.6866 21.1956 23.4864 21.7312 23.0342C22.1328 22.6954 22.4297 22.1298 23.0221 21C23.6157 19.8702 23.9113 19.306 23.9783 18.753C24.0217 18.388 23.9994 18.017 23.9126 17.6616C23.8259 17.3062 23.6765 16.9734 23.473 16.6824C23.2861 16.4136 23.0221 16.1882 22.6141 15.9054C22.0116 15.4896 21.6251 14.7812 21.6251 14C21.6251 13.2188 22.0116 12.5104 22.6128 12.096C23.0221 11.8118 23.2861 11.5864 23.4743 11.3176C23.6775 11.0265 23.8267 10.6936 23.9132 10.3382C23.9997 9.9828 24.0218 9.61192 23.9783 9.247C23.9113 8.6954 23.6157 8.1298 23.0221 7C22.4284 5.8702 22.1328 5.306 21.7312 4.9658C21.1943 4.51332 20.5179 4.31408 19.8491 4.4114C19.5434 4.4562 19.234 4.5934 18.807 4.8426C18.5004 5.02716 18.1568 5.1229 17.8079 5.12095C17.459 5.11899 17.1162 5.01939 16.8113 4.8314C16.5124 4.63632 16.2634 4.36001 16.0877 4.02857C15.912 3.69713 15.8154 3.32151 15.8071 2.9372C15.7882 2.4052 15.7427 2.0412 15.624 1.729C15.4956 1.38843 15.3079 1.07924 15.0717 0.819081C14.8354 0.558926 14.5553 0.352909 14.2472 0.2128ZM12.0001 18.2C14.1095 18.2 15.8185 16.3198 15.8185 14C15.8185 11.6802 14.1082 9.8 12.0001 9.8C9.89065 9.8 8.18165 11.6802 8.18165 14C8.18165 16.3198 9.89192 18.2 12.0001 18.2Z" fill="#FAFAFA"/>
</svg>
