<svg width="21" height="24" viewBox="0 0 21 24" fill="none" xmlns="http://www.w3.org/2000/svg">
<g id="Group 474">
<g id="Vector">
<path d="M20 22.76L15.4158 17.5099L20 22.76ZM15.4158 17.5099C16.1999 16.6118 16.8219 15.5456 17.2463 14.3723C17.6707 13.1989 17.8891 11.9413 17.8891 10.6712C17.8891 9.4012 17.6707 8.14359 17.2463 6.97022C16.8219 5.79685 16.1999 4.7307 15.4158 3.83264C14.6316 2.93458 13.7007 2.22221 12.6762 1.73618C11.6516 1.25015 10.5535 1 9.44456 1C8.33561 1 7.23751 1.25015 6.21297 1.73618C5.18843 2.22221 4.25751 2.93458 3.47336 3.83264C1.88969 5.64635 1 8.10627 1 10.6712C1 13.2362 1.88969 15.6961 3.47336 17.5099C5.05702 19.3236 7.20493 20.3425 9.44456 20.3425C11.6842 20.3425 13.8321 19.3236 15.4158 17.5099Z" fill="#FAFAFA"/>
<path d="M20 22.76L15.4158 17.5099M15.4158 17.5099C16.1999 16.6118 16.8219 15.5456 17.2463 14.3723C17.6707 13.1989 17.8891 11.9413 17.8891 10.6712C17.8891 9.4012 17.6707 8.14359 17.2463 6.97022C16.8219 5.79685 16.1999 4.7307 15.4158 3.83264C14.6316 2.93458 13.7007 2.22221 12.6762 1.73618C11.6516 1.25015 10.5535 1 9.44456 1C8.33561 1 7.23751 1.25015 6.21297 1.73618C5.18843 2.22221 4.25751 2.93458 3.47336 3.83264C1.88969 5.64635 1 8.10627 1 10.6712C1 13.2362 1.88969 15.6961 3.47336 17.5099C5.05702 19.3236 7.20493 20.3425 9.44456 20.3425C11.6842 20.3425 13.8321 19.3236 15.4158 17.5099Z" stroke="#4F5557" stroke-width="2" stroke-linecap="round" stroke-linejoin="round"/>
</g>
</g>
</svg>
