<svg width="978" height="88" viewBox="0 0 978 88" fill="none" xmlns="http://www.w3.org/2000/svg">
<g filter="url(#filter0_d_400_5642)">
<rect x="10" y="2" width="958" height="68" rx="20" fill="#FAFAFA"/>
</g>
<path d="M37.384 29.49V37.464C37.384 38.412 37.63 39.126 38.122 39.606C38.626 40.086 39.322 40.326 40.21 40.326C41.11 40.326 41.806 40.086 42.298 39.606C42.802 39.126 43.054 38.412 43.054 37.464V29.49H45.106V37.428C45.106 38.448 44.884 39.312 44.44 40.02C43.996 40.728 43.402 41.256 42.658 41.604C41.914 41.952 41.092 42.126 40.192 42.126C39.292 42.126 38.47 41.952 37.726 41.604C36.994 41.256 36.412 40.728 35.98 40.02C35.548 39.312 35.332 38.448 35.332 37.428V29.49H37.384ZM50.3297 33.54C50.6777 33.084 51.1517 32.7 51.7517 32.388C52.3517 32.076 53.0297 31.92 53.7857 31.92C54.6497 31.92 55.4357 32.136 56.1437 32.568C56.8637 32.988 57.4277 33.582 57.8357 34.35C58.2437 35.118 58.4477 36 58.4477 36.996C58.4477 37.992 58.2437 38.886 57.8357 39.678C57.4277 40.458 56.8637 41.07 56.1437 41.514C55.4357 41.946 54.6497 42.162 53.7857 42.162C53.0297 42.162 52.3577 42.012 51.7697 41.712C51.1817 41.4 50.7017 41.016 50.3297 40.56V46.716H48.2777V32.082H50.3297V33.54ZM56.3597 36.996C56.3597 36.312 56.2157 35.724 55.9277 35.232C55.6517 34.728 55.2797 34.35 54.8117 34.098C54.3557 33.834 53.8637 33.702 53.3357 33.702C52.8197 33.702 52.3277 33.834 51.8597 34.098C51.4037 34.362 51.0317 34.746 50.7437 35.25C50.4677 35.754 50.3297 36.348 50.3297 37.032C50.3297 37.716 50.4677 38.316 50.7437 38.832C51.0317 39.336 51.4037 39.72 51.8597 39.984C52.3277 40.248 52.8197 40.38 53.3357 40.38C53.8637 40.38 54.3557 40.248 54.8117 39.984C55.2797 39.708 55.6517 39.312 55.9277 38.796C56.2157 38.28 56.3597 37.68 56.3597 36.996ZM63.029 28.68V42H60.977V28.68H63.029ZM70.525 42.162C69.589 42.162 68.743 41.952 67.987 41.532C67.231 41.1 66.637 40.5 66.205 39.732C65.773 38.952 65.557 38.052 65.557 37.032C65.557 36.024 65.779 35.13 66.223 34.35C66.667 33.57 67.273 32.97 68.041 32.55C68.809 32.13 69.667 31.92 70.615 31.92C71.563 31.92 72.421 32.13 73.189 32.55C73.957 32.97 74.563 33.57 75.007 34.35C75.451 35.13 75.673 36.024 75.673 37.032C75.673 38.04 75.445 38.934 74.989 39.714C74.533 40.494 73.909 41.1 73.117 41.532C72.337 41.952 71.473 42.162 70.525 42.162ZM70.525 40.38C71.053 40.38 71.545 40.254 72.001 40.002C72.469 39.75 72.847 39.372 73.135 38.868C73.423 38.364 73.567 37.752 73.567 37.032C73.567 36.312 73.429 35.706 73.153 35.214C72.877 34.71 72.511 34.332 72.055 34.08C71.599 33.828 71.107 33.702 70.579 33.702C70.051 33.702 69.559 33.828 69.103 34.08C68.659 34.332 68.305 34.71 68.041 35.214C67.777 35.706 67.645 36.312 67.645 37.032C67.645 38.1 67.915 38.928 68.455 39.516C69.007 40.092 69.697 40.38 70.525 40.38ZM77.5176 36.996C77.5176 36 77.7216 35.118 78.1296 34.35C78.5496 33.582 79.1136 32.988 79.8216 32.568C80.5416 32.136 81.3336 31.92 82.1976 31.92C82.9776 31.92 83.6556 32.076 84.2316 32.388C84.8196 32.688 85.2876 33.066 85.6356 33.522V32.082H87.7056V42H85.6356V40.524C85.2876 40.992 84.8136 41.382 84.2136 41.694C83.6136 42.006 82.9296 42.162 82.1616 42.162C81.3096 42.162 80.5296 41.946 79.8216 41.514C79.1136 41.07 78.5496 40.458 78.1296 39.678C77.7216 38.886 77.5176 37.992 77.5176 36.996ZM85.6356 37.032C85.6356 36.348 85.4916 35.754 85.2036 35.25C84.9276 34.746 84.5616 34.362 84.1056 34.098C83.6496 33.834 83.1576 33.702 82.6296 33.702C82.1016 33.702 81.6096 33.834 81.1536 34.098C80.6976 34.35 80.3256 34.728 80.0376 35.232C79.7616 35.724 79.6236 36.312 79.6236 36.996C79.6236 37.68 79.7616 38.28 80.0376 38.796C80.3256 39.312 80.6976 39.708 81.1536 39.984C81.6216 40.248 82.1136 40.38 82.6296 40.38C83.1576 40.38 83.6496 40.248 84.1056 39.984C84.5616 39.72 84.9276 39.336 85.2036 38.832C85.4916 38.316 85.6356 37.716 85.6356 37.032ZM90.2168 36.996C90.2168 36 90.4208 35.118 90.8288 34.35C91.2488 33.582 91.8128 32.988 92.5208 32.568C93.2408 32.136 94.0388 31.92 94.9148 31.92C95.5628 31.92 96.1988 32.064 96.8228 32.352C97.4588 32.628 97.9628 33 98.3348 33.468V28.68H100.405V42H98.3348V40.506C97.9988 40.986 97.5308 41.382 96.9308 41.694C96.3428 42.006 95.6648 42.162 94.8968 42.162C94.0328 42.162 93.2408 41.946 92.5208 41.514C91.8128 41.07 91.2488 40.458 90.8288 39.678C90.4208 38.886 90.2168 37.992 90.2168 36.996ZM98.3348 37.032C98.3348 36.348 98.1908 35.754 97.9028 35.25C97.6268 34.746 97.2608 34.362 96.8048 34.098C96.3488 33.834 95.8568 33.702 95.3288 33.702C94.8008 33.702 94.3088 33.834 93.8528 34.098C93.3968 34.35 93.0248 34.728 92.7368 35.232C92.4608 35.724 92.3228 36.312 92.3228 36.996C92.3228 37.68 92.4608 38.28 92.7368 38.796C93.0248 39.312 93.3968 39.708 93.8528 39.984C94.3208 40.248 94.8128 40.38 95.3288 40.38C95.8568 40.38 96.3488 40.248 96.8048 39.984C97.2608 39.72 97.6268 39.336 97.9028 38.832C98.1908 38.316 98.3348 37.716 98.3348 37.032ZM112.69 36.798C112.69 37.17 112.666 37.506 112.618 37.806H105.04C105.1 38.598 105.394 39.234 105.922 39.714C106.45 40.194 107.098 40.434 107.866 40.434C108.97 40.434 109.75 39.972 110.206 39.048H112.42C112.12 39.96 111.574 40.71 110.782 41.298C110.002 41.874 109.03 42.162 107.866 42.162C106.918 42.162 106.066 41.952 105.31 41.532C104.566 41.1 103.978 40.5 103.546 39.732C103.126 38.952 102.916 38.052 102.916 37.032C102.916 36.012 103.12 35.118 103.528 34.35C103.948 33.57 104.53 32.97 105.274 32.55C106.03 32.13 106.894 31.92 107.866 31.92C108.802 31.92 109.636 32.124 110.368 32.532C111.1 32.94 111.67 33.516 112.078 34.26C112.486 34.992 112.69 35.838 112.69 36.798ZM110.548 36.15C110.536 35.394 110.266 34.788 109.738 34.332C109.21 33.876 108.556 33.648 107.776 33.648C107.068 33.648 106.462 33.876 105.958 34.332C105.454 34.776 105.154 35.382 105.058 36.15H110.548ZM117.261 33.522C117.561 33.018 117.957 32.628 118.449 32.352C118.953 32.064 119.547 31.92 120.231 31.92V34.044H119.709C118.905 34.044 118.293 34.248 117.873 34.656C117.465 35.064 117.261 35.772 117.261 36.78V42H115.209V32.082H117.261V33.522ZM131.879 29.49C133.211 29.49 134.375 29.748 135.371 30.264C136.379 30.768 137.153 31.5 137.693 32.46C138.245 33.408 138.521 34.518 138.521 35.79C138.521 37.062 138.245 38.166 137.693 39.102C137.153 40.038 136.379 40.758 135.371 41.262C134.375 41.754 133.211 42 131.879 42H127.793V29.49H131.879ZM131.879 40.326C133.343 40.326 134.465 39.93 135.245 39.138C136.025 38.346 136.415 37.23 136.415 35.79C136.415 34.338 136.025 33.204 135.245 32.388C134.465 31.572 133.343 31.164 131.879 31.164H129.845V40.326H131.879ZM150.145 36.798C150.145 37.17 150.121 37.506 150.073 37.806H142.495C142.555 38.598 142.849 39.234 143.377 39.714C143.905 40.194 144.553 40.434 145.321 40.434C146.425 40.434 147.205 39.972 147.661 39.048H149.875C149.575 39.96 149.029 40.71 148.237 41.298C147.457 41.874 146.485 42.162 145.321 42.162C144.373 42.162 143.521 41.952 142.765 41.532C142.021 41.1 141.433 40.5 141.001 39.732C140.581 38.952 140.371 38.052 140.371 37.032C140.371 36.012 140.575 35.118 140.983 34.35C141.403 33.57 141.985 32.97 142.729 32.55C143.485 32.13 144.349 31.92 145.321 31.92C146.257 31.92 147.091 32.124 147.823 32.532C148.555 32.94 149.125 33.516 149.533 34.26C149.941 34.992 150.145 35.838 150.145 36.798ZM148.003 36.15C147.991 35.394 147.721 34.788 147.193 34.332C146.665 33.876 146.011 33.648 145.231 33.648C144.523 33.648 143.917 33.876 143.413 34.332C142.909 34.776 142.609 35.382 142.513 36.15H148.003ZM156.264 42.162C155.484 42.162 154.782 42.024 154.158 41.748C153.546 41.46 153.06 41.076 152.7 40.596C152.34 40.104 152.148 39.558 152.124 38.958H154.248C154.284 39.378 154.482 39.732 154.842 40.02C155.214 40.296 155.676 40.434 156.228 40.434C156.804 40.434 157.248 40.326 157.56 40.11C157.884 39.882 158.046 39.594 158.046 39.246C158.046 38.874 157.866 38.598 157.506 38.418C157.158 38.238 156.6 38.04 155.832 37.824C155.088 37.62 154.482 37.422 154.014 37.23C153.546 37.038 153.138 36.744 152.79 36.348C152.454 35.952 152.286 35.43 152.286 34.782C152.286 34.254 152.442 33.774 152.754 33.342C153.066 32.898 153.51 32.55 154.086 32.298C154.674 32.046 155.346 31.92 156.102 31.92C157.23 31.92 158.136 32.208 158.82 32.784C159.516 33.348 159.888 34.122 159.936 35.106H157.884C157.848 34.662 157.668 34.308 157.344 34.044C157.02 33.78 156.582 33.648 156.03 33.648C155.49 33.648 155.076 33.75 154.788 33.954C154.5 34.158 154.356 34.428 154.356 34.764C154.356 35.028 154.452 35.25 154.644 35.43C154.836 35.61 155.07 35.754 155.346 35.862C155.622 35.958 156.03 36.084 156.57 36.24C157.29 36.432 157.878 36.63 158.334 36.834C158.802 37.026 159.204 37.314 159.54 37.698C159.876 38.082 160.05 38.592 160.062 39.228C160.062 39.792 159.906 40.296 159.594 40.74C159.282 41.184 158.838 41.532 158.262 41.784C157.698 42.036 157.032 42.162 156.264 42.162ZM175.497 39.444H170.259L169.359 42H167.217L171.699 29.472H174.075L178.557 42H176.397L175.497 39.444ZM174.921 37.77L172.887 31.956L170.835 37.77H174.921ZM183.058 33.522C183.358 33.018 183.754 32.628 184.246 32.352C184.75 32.064 185.344 31.92 186.028 31.92V34.044H185.506C184.702 34.044 184.09 34.248 183.67 34.656C183.262 35.064 183.058 35.772 183.058 36.78V42H181.006V32.082H183.058V33.522ZM190.808 33.756V39.246C190.808 39.618 190.892 39.888 191.06 40.056C191.24 40.212 191.54 40.29 191.96 40.29H193.22V42H191.6C190.676 42 189.968 41.784 189.476 41.352C188.984 40.92 188.738 40.218 188.738 39.246V33.756H187.568V32.082H188.738V29.616H190.808V32.082H193.22V33.756H190.808ZM196.656 30.768C196.284 30.768 195.972 30.642 195.72 30.39C195.468 30.138 195.342 29.826 195.342 29.454C195.342 29.082 195.468 28.77 195.72 28.518C195.972 28.266 196.284 28.14 196.656 28.14C197.016 28.14 197.322 28.266 197.574 28.518C197.826 28.77 197.952 29.082 197.952 29.454C197.952 29.826 197.826 30.138 197.574 30.39C197.322 30.642 197.016 30.768 196.656 30.768ZM197.664 32.082V42H195.612V32.082H197.664ZM200.174 37.032C200.174 36.012 200.378 35.118 200.786 34.35C201.206 33.57 201.782 32.97 202.514 32.55C203.246 32.13 204.086 31.92 205.034 31.92C206.234 31.92 207.224 32.208 208.004 32.784C208.796 33.348 209.33 34.158 209.606 35.214H207.392C207.212 34.722 206.924 34.338 206.528 34.062C206.132 33.786 205.634 33.648 205.034 33.648C204.194 33.648 203.522 33.948 203.018 34.548C202.526 35.136 202.28 35.964 202.28 37.032C202.28 38.1 202.526 38.934 203.018 39.534C203.522 40.134 204.194 40.434 205.034 40.434C206.222 40.434 207.008 39.912 207.392 38.868H209.606C209.318 39.876 208.778 40.68 207.986 41.28C207.194 41.868 206.21 42.162 205.034 42.162C204.086 42.162 203.246 41.952 202.514 41.532C201.782 41.1 201.206 40.5 200.786 39.732C200.378 38.952 200.174 38.052 200.174 37.032ZM214.203 28.68V42H212.151V28.68H214.203ZM226.487 36.798C226.487 37.17 226.463 37.506 226.415 37.806H218.837C218.897 38.598 219.191 39.234 219.719 39.714C220.247 40.194 220.895 40.434 221.663 40.434C222.767 40.434 223.547 39.972 224.003 39.048H226.217C225.917 39.96 225.371 40.71 224.579 41.298C223.799 41.874 222.827 42.162 221.663 42.162C220.715 42.162 219.863 41.952 219.107 41.532C218.363 41.1 217.775 40.5 217.343 39.732C216.923 38.952 216.713 38.052 216.713 37.032C216.713 36.012 216.917 35.118 217.325 34.35C217.745 33.57 218.327 32.97 219.071 32.55C219.827 32.13 220.691 31.92 221.663 31.92C222.599 31.92 223.433 32.124 224.165 32.532C224.897 32.94 225.467 33.516 225.875 34.26C226.283 34.992 226.487 35.838 226.487 36.798ZM224.345 36.15C224.333 35.394 224.063 34.788 223.535 34.332C223.007 33.876 222.353 33.648 221.573 33.648C220.865 33.648 220.259 33.876 219.755 34.332C219.251 34.776 218.951 35.382 218.855 36.15H224.345ZM232.606 42.162C231.826 42.162 231.124 42.024 230.5 41.748C229.888 41.46 229.402 41.076 229.042 40.596C228.682 40.104 228.49 39.558 228.466 38.958H230.59C230.626 39.378 230.824 39.732 231.184 40.02C231.556 40.296 232.018 40.434 232.57 40.434C233.146 40.434 233.59 40.326 233.902 40.11C234.226 39.882 234.388 39.594 234.388 39.246C234.388 38.874 234.208 38.598 233.848 38.418C233.5 38.238 232.942 38.04 232.174 37.824C231.43 37.62 230.824 37.422 230.356 37.23C229.888 37.038 229.48 36.744 229.132 36.348C228.796 35.952 228.628 35.43 228.628 34.782C228.628 34.254 228.784 33.774 229.096 33.342C229.408 32.898 229.852 32.55 230.428 32.298C231.016 32.046 231.688 31.92 232.444 31.92C233.572 31.92 234.478 32.208 235.162 32.784C235.858 33.348 236.23 34.122 236.278 35.106H234.226C234.19 34.662 234.01 34.308 233.686 34.044C233.362 33.78 232.924 33.648 232.372 33.648C231.832 33.648 231.418 33.75 231.13 33.954C230.842 34.158 230.698 34.428 230.698 34.764C230.698 35.028 230.794 35.25 230.986 35.43C231.178 35.61 231.412 35.754 231.688 35.862C231.964 35.958 232.372 36.084 232.912 36.24C233.632 36.432 234.22 36.63 234.676 36.834C235.144 37.026 235.546 37.314 235.882 37.698C236.218 38.082 236.392 38.592 236.404 39.228C236.404 39.792 236.248 40.296 235.936 40.74C235.624 41.184 235.18 41.532 234.604 41.784C234.04 42.036 233.374 42.162 232.606 42.162ZM246.349 31.146V34.818H250.669V36.492H246.349V40.326H251.209V42H244.297V29.472H251.209V31.146H246.349ZM259.241 31.92C260.021 31.92 260.717 32.082 261.329 32.406C261.953 32.73 262.439 33.21 262.787 33.846C263.135 34.482 263.309 35.25 263.309 36.15V42H261.275V36.456C261.275 35.568 261.053 34.89 260.609 34.422C260.165 33.942 259.559 33.702 258.791 33.702C258.023 33.702 257.411 33.942 256.955 34.422C256.511 34.89 256.289 35.568 256.289 36.456V42H254.237V32.082H256.289V33.216C256.625 32.808 257.051 32.49 257.567 32.262C258.095 32.034 258.653 31.92 259.241 31.92ZM273.654 31.146V34.818H277.974V36.492H273.654V40.326H278.514V42H271.602V29.472H278.514V31.146H273.654ZM286.545 31.92C287.325 31.92 288.021 32.082 288.633 32.406C289.257 32.73 289.743 33.21 290.091 33.846C290.439 34.482 290.613 35.25 290.613 36.15V42H288.579V36.456C288.579 35.568 288.357 34.89 287.913 34.422C287.469 33.942 286.863 33.702 286.095 33.702C285.327 33.702 284.715 33.942 284.259 34.422C283.815 34.89 283.593 35.568 283.593 36.456V42H281.541V32.082H283.593V33.216C283.929 32.808 284.355 32.49 284.871 32.262C285.399 32.034 285.957 31.92 286.545 31.92ZM296.125 33.756V39.246C296.125 39.618 296.209 39.888 296.377 40.056C296.557 40.212 296.857 40.29 297.277 40.29H298.537V42H296.917C295.993 42 295.285 41.784 294.793 41.352C294.301 40.92 294.055 40.218 294.055 39.246V33.756H292.885V32.082H294.055V29.616H296.125V32.082H298.537V33.756H296.125ZM302.98 33.522C303.28 33.018 303.676 32.628 304.168 32.352C304.672 32.064 305.266 31.92 305.95 31.92V34.044H305.428C304.624 34.044 304.012 34.248 303.592 34.656C303.184 35.064 302.98 35.772 302.98 36.78V42H300.928V32.082H302.98V33.522ZM307.652 36.996C307.652 36 307.856 35.118 308.264 34.35C308.684 33.582 309.248 32.988 309.956 32.568C310.676 32.136 311.468 31.92 312.332 31.92C313.112 31.92 313.79 32.076 314.366 32.388C314.954 32.688 315.422 33.066 315.77 33.522V32.082H317.84V42H315.77V40.524C315.422 40.992 314.948 41.382 314.348 41.694C313.748 42.006 313.064 42.162 312.296 42.162C311.444 42.162 310.664 41.946 309.956 41.514C309.248 41.07 308.684 40.458 308.264 39.678C307.856 38.886 307.652 37.992 307.652 36.996ZM315.77 37.032C315.77 36.348 315.626 35.754 315.338 35.25C315.062 34.746 314.696 34.362 314.24 34.098C313.784 33.834 313.292 33.702 312.764 33.702C312.236 33.702 311.744 33.834 311.288 34.098C310.832 34.35 310.46 34.728 310.172 35.232C309.896 35.724 309.758 36.312 309.758 36.996C309.758 37.68 309.896 38.28 310.172 38.796C310.46 39.312 310.832 39.708 311.288 39.984C311.756 40.248 312.248 40.38 312.764 40.38C313.292 40.38 313.784 40.248 314.24 39.984C314.696 39.72 315.062 39.336 315.338 38.832C315.626 38.316 315.77 37.716 315.77 37.032ZM326.04 31.92C326.82 31.92 327.516 32.082 328.128 32.406C328.752 32.73 329.238 33.21 329.586 33.846C329.934 34.482 330.108 35.25 330.108 36.15V42H328.074V36.456C328.074 35.568 327.852 34.89 327.408 34.422C326.964 33.942 326.358 33.702 325.59 33.702C324.822 33.702 324.21 33.942 323.754 34.422C323.31 34.89 323.088 35.568 323.088 36.456V42H321.036V32.082H323.088V33.216C323.424 32.808 323.85 32.49 324.366 32.262C324.894 32.034 325.452 31.92 326.04 31.92ZM335.619 33.756V39.246C335.619 39.618 335.703 39.888 335.871 40.056C336.051 40.212 336.351 40.29 336.771 40.29H338.031V42H336.411C335.487 42 334.779 41.784 334.287 41.352C333.795 40.92 333.549 40.218 333.549 39.246V33.756H332.379V32.082H333.549V29.616H335.619V32.082H338.031V33.756H335.619ZM347.632 29.49V37.464C347.632 38.412 347.878 39.126 348.37 39.606C348.874 40.086 349.57 40.326 350.458 40.326C351.358 40.326 352.054 40.086 352.546 39.606C353.05 39.126 353.302 38.412 353.302 37.464V29.49H355.354V37.428C355.354 38.448 355.132 39.312 354.688 40.02C354.244 40.728 353.65 41.256 352.906 41.604C352.162 41.952 351.34 42.126 350.44 42.126C349.54 42.126 348.718 41.952 347.974 41.604C347.242 41.256 346.66 40.728 346.228 40.02C345.796 39.312 345.58 38.448 345.58 37.428V29.49H347.632ZM363.53 31.92C364.31 31.92 365.006 32.082 365.618 32.406C366.242 32.73 366.728 33.21 367.076 33.846C367.424 34.482 367.598 35.25 367.598 36.15V42H365.564V36.456C365.564 35.568 365.342 34.89 364.898 34.422C364.454 33.942 363.848 33.702 363.08 33.702C362.312 33.702 361.7 33.942 361.244 34.422C360.8 34.89 360.578 35.568 360.578 36.456V42H358.526V32.082H360.578V33.216C360.914 32.808 361.34 32.49 361.856 32.262C362.384 32.034 362.942 31.92 363.53 31.92ZM377.925 29.49V37.464C377.925 38.412 378.171 39.126 378.663 39.606C379.167 40.086 379.863 40.326 380.751 40.326C381.651 40.326 382.347 40.086 382.839 39.606C383.343 39.126 383.595 38.412 383.595 37.464V29.49H385.647V37.428C385.647 38.448 385.425 39.312 384.981 40.02C384.537 40.728 383.943 41.256 383.199 41.604C382.455 41.952 381.633 42.126 380.733 42.126C379.833 42.126 379.011 41.952 378.267 41.604C377.535 41.256 376.953 40.728 376.521 40.02C376.089 39.312 375.873 38.448 375.873 37.428V29.49H377.925ZM395.317 42L392.437 36.996H390.871V42H388.819V29.49H393.139C394.099 29.49 394.909 29.658 395.569 29.994C396.241 30.33 396.739 30.78 397.063 31.344C397.399 31.908 397.567 32.538 397.567 33.234C397.567 34.05 397.327 34.794 396.847 35.466C396.379 36.126 395.653 36.576 394.669 36.816L397.765 42H395.317ZM390.871 35.358H393.139C393.907 35.358 394.483 35.166 394.867 34.782C395.263 34.398 395.461 33.882 395.461 33.234C395.461 32.586 395.269 32.082 394.885 31.722C394.501 31.35 393.919 31.164 393.139 31.164H390.871V35.358ZM402.744 40.344H406.974V42H400.692V29.49H402.744V40.344Z" fill="#455A64" fill-opacity="0.8"/>
<path fill-rule="evenodd" clip-rule="evenodd" d="M921.002 41.0011C921.4 41.0011 921.781 40.8431 922.062 40.5618C922.344 40.2805 922.502 39.8989 922.502 39.5011V17.5551L925.862 21.4771C926.121 21.7795 926.489 21.9666 926.886 21.9974C927.283 22.0281 927.675 21.9 927.978 21.6411C928.28 21.3823 928.467 21.0139 928.498 20.6171C928.529 20.2203 928.401 19.8275 928.142 19.5251L922.142 12.5251C922.001 12.3604 921.826 12.2282 921.629 12.1376C921.432 12.0469 921.218 12 921.002 12C920.785 12 920.571 12.0469 920.374 12.1376C920.177 12.2282 920.003 12.3604 919.862 12.5251L913.862 19.5251C913.734 19.6748 913.636 19.8483 913.575 20.0357C913.514 20.223 913.49 20.4206 913.505 20.6171C913.521 20.8136 913.574 21.0051 913.664 21.1808C913.753 21.3565 913.876 21.5129 914.026 21.6411C914.175 21.7693 914.349 21.8667 914.536 21.9278C914.724 21.989 914.921 22.0126 915.118 21.9974C915.314 21.9821 915.506 21.9283 915.681 21.8391C915.857 21.7498 916.014 21.6268 916.142 21.4771L919.502 17.5571V39.5011C919.502 40.3291 920.174 41.0011 921.002 41.0011Z" fill="#15245B"/>
<path d="M929 27.501C927.596 27.501 926.894 27.501 926.388 27.839C926.17 27.9845 925.984 28.1714 925.838 28.389C925.5 28.895 925.5 29.597 925.5 31.001V39.501C925.5 40.6945 925.026 41.839 924.182 42.683C923.338 43.5269 922.193 44.001 921 44.001C919.807 44.001 918.662 43.5269 917.818 42.683C916.974 41.839 916.5 40.6945 916.5 39.501V31.001C916.5 29.597 916.5 28.895 916.162 28.389C916.016 28.1714 915.83 27.9845 915.612 27.839C915.106 27.501 914.404 27.501 913 27.501C907.344 27.501 904.514 27.501 902.758 29.259C901 31.015 901 33.841 901 39.499V41.499C901 47.159 901 49.985 902.758 51.743C904.514 53.501 907.344 53.501 913 53.501H929C934.656 53.501 937.486 53.501 939.242 51.743C941 49.985 941 47.157 941 41.501V39.501C941 33.843 941 31.015 939.242 29.259C937.486 27.501 934.656 27.501 929 27.501Z" fill="#15245B"/>
<defs>
<filter id="filter0_d_400_5642" x="0" y="0" width="978" height="88" filterUnits="userSpaceOnUse" color-interpolation-filters="sRGB">
<feFlood flood-opacity="0" result="BackgroundImageFix"/>
<feColorMatrix in="SourceAlpha" type="matrix" values="0 0 0 0 0 0 0 0 0 0 0 0 0 0 0 0 0 0 127 0" result="hardAlpha"/>
<feOffset dy="8"/>
<feGaussianBlur stdDeviation="5"/>
<feComposite in2="hardAlpha" operator="out"/>
<feColorMatrix type="matrix" values="0 0 0 0 0 0 0 0 0 0 0 0 0 0 0 0 0 0 0.1 0"/>
<feBlend mode="normal" in2="BackgroundImageFix" result="effect1_dropShadow_400_5642"/>
<feBlend mode="normal" in="SourceGraphic" in2="effect1_dropShadow_400_5642" result="shape"/>
</filter>
</defs>
</svg>
