<svg width="38" height="38" viewBox="0 0 38 38" fill="none" xmlns="http://www.w3.org/2000/svg">
<g id="arcticons:words-of-wonders-crossword">
<path id="Vector" d="M19 31.6113C22.4432 31.6113 25.2344 28.8201 25.2344 25.377C25.2344 21.9338 22.4432 19.1426 19 19.1426C15.5568 19.1426 12.7656 21.9338 12.7656 25.377C12.7656 28.8201 15.5568 31.6113 19 31.6113Z" stroke="#15245B" stroke-linecap="round" stroke-linejoin="round"/>
<path id="Vector_2" d="M9.79688 20.4409C13.24 20.4409 16.0312 17.6497 16.0312 14.2065C16.0312 10.7634 13.24 7.97217 9.79688 7.97217C6.35372 7.97217 3.5625 10.7634 3.5625 14.2065C3.5625 17.6497 6.35372 20.4409 9.79688 20.4409Z" stroke="#15245B" stroke-linecap="round" stroke-linejoin="round"/>
<path id="Vector_3" d="M28.2031 20.4409C31.6463 20.4409 34.4375 17.6497 34.4375 14.2065C34.4375 10.7634 31.6463 7.97217 28.2031 7.97217C24.76 7.97217 21.9688 10.7634 21.9688 14.2065C21.9688 17.6497 24.76 20.4409 28.2031 20.4409Z" stroke="#15245B" stroke-linecap="round" stroke-linejoin="round"/>
<path id="Vector_4" d="M13.1962 11.2346L11.5099 17.9804L9.82367 11.2346L8.13742 17.9804L6.45117 11.2346M31.6024 11.2346L29.9162 17.9804L28.2299 11.2346L26.5437 17.9804L24.8574 11.2346M14.9885 20.6111L13.5215 19.194M24.483 19.194L23.0152 20.6111M18.9579 28.7495C17.6928 28.7495 16.765 27.7377 16.765 26.5573V24.2805C16.765 23.0162 17.7775 22.0045 18.9579 22.0045C19.2572 22.0032 19.5538 22.0612 19.8305 22.1751C20.1073 22.2891 20.3587 22.4567 20.5704 22.6682C20.7821 22.8798 20.9497 23.1312 21.0638 23.4079C21.1778 23.6847 21.2359 23.9812 21.2348 24.2805V26.4734C21.2359 26.7727 21.1778 27.0692 21.0638 27.346C20.9497 27.6227 20.7821 27.8741 20.5704 28.0857C20.3587 28.2973 20.1073 28.4648 19.8305 28.5788C19.5538 28.6927 19.2572 28.7507 18.9579 28.7495Z" stroke="#15245B" stroke-linecap="round" stroke-linejoin="round"/>
</g>
</svg>
